<?xml version="1.0" encoding="UTF-8" ?>
<!DOCTYPE svg PUBLIC "-//W3C//DTD SVG 1.1//EN" "http://www.w3.org/Graphics/SVG/1.1/DTD/svg11.dtd">
<svg width="445" height="455" xmlns="http://www.w3.org/2000/svg" xmlns:svg="http://www.w3.org/2000/svg">
 <style>.a{fill:#fefefe;}</style>
 <g>
  <title>Layer 1</title>
  <path d="m176.9,33.8c44.2,-11.2 92.3,-5.5 132.8,15.5c44.8,23.1 80,64 96.2,111.7c17.7,50.6 14.3,108.3 -9.5,156.3c-18,36.6 -47.4,67.4 -83.1,86.9c-22,11.9 -46.4,19.4 -71.3,21.9c0,-27.4 0,-54.7 0,-82.1c9.4,0 18.7,0 28,0c16.3,0.7 32.7,-5.3 44.7,-16.3c12.5,-11.2 20.2,-27.8 20.3,-44.7c0,-44 0,-88 0,-132c5.7,0 11.3,0 17,0c-10.6,-19.3 -21.3,-38.5 -31.9,-57.8c-10.8,19.2 -21.3,38.5 -31.9,57.8c5.2,0 10.5,0 15.8,0c0,43.3 0,86.7 0,130c0.1,5.8 -1.2,11.7 -4.3,16.6c-6.6,11.1 -20.2,17.2 -32.8,15c-10.3,-1.5 -19.5,-8.4 -23.9,-17.7c-1.5,-2.4 -0.9,-5.3 -1,-7.9c0,-45.3 0,-90.7 0,-136c4.7,0 9.3,0 14,0c-10.5,-19.3 -21,-38.6 -31.5,-57.9c-10.4,19.2 -20.8,38.5 -31.3,57.7c4.2,0.4 8.5,0.2 12.8,0.2c0,47.4 0,94.7 0,142.1c0.2,2.9 -1.7,5.3 -3.3,7.5c-6.3,8.1 -16.5,12.9 -26.8,12.4c-10.9,-0.2 -21.5,-6.5 -26.8,-16.1c-3.1,-5.1 -4.1,-11.1 -4.1,-16.9c0,-43 0,-86 0,-129c5,-0.1 10,0.2 15,-0.2c-10.8,-19.1 -21.3,-38.5 -31.9,-57.7c-10.7,19.3 -21.3,38.6 -31.9,57.9c5.9,0 11.9,0 17.8,0c0,43.3 0,86.7 0,130c0,14 4.4,28 13.1,38.9c11.4,14.6 29.4,23.7 47.9,24.1c10.3,0 20.7,0 31,0c0,27.5 0,54.9 0,82.4c-25.4,-2.1 -50.3,-9.5 -72.8,-21.6c-24.7,-13 -46.2,-31.8 -63.4,-53.7c-18.3,-23.8 -31.2,-51.7 -37.3,-81.1c-6.7,-31.7 -5.7,-64.9 2.8,-96.1c7.1,-26.5 19.9,-51.3 36.9,-72.7c4.1,-4.9 8.4,-9.5 12.6,-14.3c4.3,-4.4 9,-8.4 13.4,-12.6c22.7,-19.3 49.8,-33.5 78.7,-40.5z" class="a" id="svg_3" fill="#112640"/>
  <path d="m96.2,151c10.6,-19.3 21.2,-38.6 31.9,-57.9c10.6,19.2 21.1,38.6 31.9,57.7c-5,0.4 -10,0.1 -15,0.2c0,43 0,86 0,129c0,5.8 1,11.8 4.1,16.9c5.3,9.6 15.9,15.9 26.8,16.1c10.3,0.5 20.5,-4.3 26.8,-12.4c1.6,-2.2 3.5,-4.6 3.3,-7.5c0,-47.4 0,-94.7 0,-142.1c-4.3,0 -8.6,0.2 -12.8,-0.2c10.5,-19.2 20.9,-38.5 31.3,-57.7c10.5,19.3 21,38.6 31.5,57.9c-4.7,0 -9.3,0 -14,0c0,45.3 0,90.7 0,136c0.1,2.6 -0.5,5.5 1,7.9c4.4,9.3 13.6,16.2 23.9,17.7c12.6,2.2 26.2,-3.9 32.8,-15c3.1,-4.9 4.4,-10.8 4.3,-16.6c0,-43.3 0,-86.7 0,-130c-5.3,0 -10.6,0 -15.8,0c10.6,-19.3 21.1,-38.6 31.9,-57.8c10.6,19.3 21.3,38.5 31.9,57.8c-5.7,0 -11.3,0 -17,0c0,44 0,88 0,132c-0.1,16.9 -7.8,33.5 -20.3,44.7c-12,11 -28.4,17 -44.7,16.3c-9.3,0 -18.6,0 -28,0c0,27.4 0,54.7 0,82.1c-12,1.1 -24,1.5 -36,0.3c0,-27.5 0,-54.9 0,-82.4c-10.3,0 -20.7,0 -31,0c-18.5,-0.4 -36.5,-9.5 -47.9,-24.1c-8.7,-10.9 -13.1,-24.9 -13.1,-38.9c0,-43.3 0,-86.7 0,-130c-5.9,0 -11.9,0 -17.8,0z" fill="#ed1c24" id="svg_4" stroke="#ff0000"/>
 </g>
</svg>
